<mxfile modified="2020-12-02T06:52:26.717Z" host="app.diagrams.net" agent="5.0 (Macintosh; Intel Mac OS X 10_15_7) AppleWebKit/537.36 (KHTML, like Gecko) Chrome/87.0.4280.67 Safari/537.36" etag="Pbnw3-iBY0wGJV8yJFhw" version="13.10.5" type="github">
  <diagram id="WI9T0HZ2pTsCkuznbFz-" name="Page-1">
    <mxGraphModel dx="1126" dy="673" grid="1" gridSize="10" guides="1" tooltips="1" connect="1" arrows="1" fold="1" page="1" pageScale="1" pageWidth="1169" pageHeight="827" math="0" shadow="0">
      <root>
        <mxCell id="0" />
        <mxCell id="1" parent="0" />
        <mxCell id="n0bJvDlAcugo_qtZuH2x-1" value="" style="shape=image;verticalLabelPosition=bottom;labelBackgroundColor=#ffffff;verticalAlign=top;aspect=fixed;imageAspect=0;image=data:image/svg+xml,PHN2ZyB4bWxuczpkYz0iaHR0cDovL3B1cmwub3JnL2RjL2VsZW1lbnRzLzEuMS8iIHhtbG5zOmNjPSJodHRwOi8vY3JlYXRpdmVjb21tb25zLm9yZy9ucyMiIHhtbG5zOnJkZj0iaHR0cDovL3d3dy53My5vcmcvMTk5OS8wMi8yMi1yZGYtc3ludGF4LW5zIyIgeG1sbnM6c3ZnPSJodHRwOi8vd3d3LnczLm9yZy8yMDAwL3N2ZyIgeG1sbnM9Imh0dHA6Ly93d3cudzMub3JnLzIwMDAvc3ZnIiB4bWxuczpzb2RpcG9kaT0iaHR0cDovL3NvZGlwb2RpLnNvdXJjZWZvcmdlLm5ldC9EVEQvc29kaXBvZGktMC5kdGQiIHhtbG5zOmlua3NjYXBlPSJodHRwOi8vd3d3Lmlua3NjYXBlLm9yZy9uYW1lc3BhY2VzL2lua3NjYXBlIiB2ZXJzaW9uPSIxLjEiIGlkPSJzdmc4MDY5OSIgaW5rc2NhcGU6dmVyc2lvbj0iMC45Mi4zICgyNDA1NTQ2LCAyMDE4LTAzLTExKSIgc29kaXBvZGk6ZG9jbmFtZT0iaGRpbnNpZ2h0X2hhZG9vcC5zdmciIHg9IjBweCIgeT0iMHB4IiB2aWV3Qm94PSIwIDAgOTUuNDcgNzMuNzU0MzQxIiB4bWw6c3BhY2U9InByZXNlcnZlIiB3aWR0aD0iOTUuNDcwMDAxIiBoZWlnaHQ9IjczLjc1NDM0MSI+PG1ldGFkYXRhIGlkPSJtZXRhZGF0YTE2OTYiPjxyZGY6UkRGPjxjYzpXb3JrIHJkZjphYm91dD0iIj48ZGM6Zm9ybWF0PmltYWdlL3N2Zyt4bWw8L2RjOmZvcm1hdD48ZGM6dHlwZSByZGY6cmVzb3VyY2U9Imh0dHA6Ly9wdXJsLm9yZy9kYy9kY21pdHlwZS9TdGlsbEltYWdlIi8+PGRjOnRpdGxlLz48L2NjOldvcms+PC9yZGY6UkRGPjwvbWV0YWRhdGE+PGRlZnMgaWQ9ImRlZnMxNjk0Ii8+JiN4YTs8ZmlsdGVyIGlkPSJmaWx0ZXJfMiI+JiN4YTsJPGZlR2F1c3NpYW5CbHVyIGlkPSJmZUdhdXNzaWFuQmx1cjgwNjA4IiBzdGREZXZpYXRpb249IjIiLz4mI3hhOzwvZmlsdGVyPiYjeGE7PHNvZGlwb2RpOm5hbWVkdmlldyBib3JkZXJjb2xvcj0iIzY2NjY2NiIgYm9yZGVyb3BhY2l0eT0iMSIgZml0LW1hcmdpbi1ib3R0b209IjAiIGZpdC1tYXJnaW4tbGVmdD0iMCIgZml0LW1hcmdpbi1yaWdodD0iMCIgZml0LW1hcmdpbi10b3A9IjAiIGdyaWR0b2xlcmFuY2U9IjEwIiBndWlkZXRvbGVyYW5jZT0iMTAiIGlkPSJuYW1lZHZpZXc4MDcwMSIgaW5rc2NhcGU6Y3VycmVudC1sYXllcj0ic3ZnODA2OTkiIGlua3NjYXBlOmN4PSIxOC4xNzAzMTgiIGlua3NjYXBlOmN5PSIzMy42OTMzNzciIGlua3NjYXBlOnBhZ2VvcGFjaXR5PSIwIiBpbmtzY2FwZTpwYWdlc2hhZG93PSIyIiBpbmtzY2FwZTp3aW5kb3ctaGVpZ2h0PSIxMDE3IiBpbmtzY2FwZTp3aW5kb3ctbWF4aW1pemVkPSIxIiBpbmtzY2FwZTp3aW5kb3ctd2lkdGg9IjE5MjAiIGlua3NjYXBlOndpbmRvdy14PSItOCIgaW5rc2NhcGU6d2luZG93LXk9Ii04IiBpbmtzY2FwZTp6b29tPSI2LjYxOTg4OTQiIG9iamVjdHRvbGVyYW5jZT0iMTAiIHBhZ2Vjb2xvcj0iI2ZmZmZmZiIgc2hvd2dyaWQ9ImZhbHNlIj4mI3hhOwk8L3NvZGlwb2RpOm5hbWVkdmlldz4mI3hhOyYjeGE7PHBhdGggaWQ9InBhdGg4MDYyMSIgaW5rc2NhcGU6Y29ubmVjdG9yLWN1cnZhdHVyZT0iMCIgc3R5bGU9ImZpbGw6I2ZjZDExNiIgZD0ibSAzMi43MSwxNi4xOTM5NjkgLTYuNjYsMS4xNCAtNS44OSwyLjY2IC01LjE0LDMuMjQgLTQuOTQsNS44OSAtMi42NiwyLjg2IC0yLjY3LDAuOTUgLTAuNzYsLTEuNzEgMS4zMywtMS43MiAwLjE5LC0yLjQ3IGggMC45NiBsIDAuNzYsMC43NiAtMC4xOSwtMi40NyAtMC45NiwtMC43NiB2IC0wLjk1IGwgLTIuMjgsMS4zMyAtMi4yOCwyLjQ3IC0wLjM4LDIuMjggMC45NSwxLjkxIDAuNzYsMy4wNCAxLjcxLDAuNzYgaCAxLjkxIGwgMS43MSwtMS4xNCAtMS4xNCw1Ljg5IDEuMTQsNi40NyAtMS4zMywzLjA0IC00LDQuMzggMC41NywyLjg1IDIuMDksMy4wNCAzLjYyLDIuNDggMi4wOSwwLjM4IGggMi4wOSBsIC0xLjMzLDUuNyA0Ljk1LDIuMDkgNi4yNywwLjc3IDIuMDksLTEuNTMgMC4xOSwtMy42MSAyLjQ4LC0zLjk5IDAuMTksLTMuMjQgNS43LDAuNTcgNS4zMywtMC41NyAtNS4zMywzLjI0IDAuOTUsMy44IDMuMjQsNS4zMyAzLjQyLDEuMzMgMi40NywtMC45NSAxLjE0LC0yLjI5IDUuNTIsLTQuMTggMS4xNCwwLjk1IDguNTYsMC4zOCAxLjcxLC0xLjUyIDAuMTksLTIuNDcgLTAuNTcsLTAuOTUgLTAuMzgsLTYuNjYgLTIuODUsLTUuNzEgMC4zOCwtMi42NiAxLjcxLDAuOTUgNC45NCw0LjU3IDIuMjksMC4xOSAyLjY2LC0xLjE0IDIuNjYsLTEuOTEgMS4zMywtNC4zNyA3LjYxLDAuNTcgNC43NSwtMS45IDMuODEsLTMuNDMgMi42NiwtNS4xMyAwLjc2LC02LjA5IC0wLjU3LC02Ljg0IC0xLjUyLC02LjI4IC0xLjUyLC0yLjA5IC0yLjA5LC0wLjU3IC0zLjYyLDMuOTkgLTMuMjMsMS4xNCAtMi44NSwtNC43NSAtMi44NiwtMi42NiAtMS43MSwtMC45NTAwMDA0IC02LjA4LC01LjMzIC01LjE0LC0yLjY2IC00Ljk0LC0wLjM4IC01LjksMC45NSAtNS4xNCwxLjkgLTMuNDIsMi44NSAtMi44NSwzLjQzMDAwMDQgLTIuODUsMC43NiB6Ii8+JiN4YTsmI3hhOzxwYXRoIGlkPSJwYXRoODA2MjkiIGlua3NjYXBlOmNvbm5lY3Rvci1jdXJ2YXR1cmU9IjAiIHN0eWxlPSJmaWxsOiMxZTFlMWUiIGQ9Im0gNy4wNCwyOS4xMzM5NjkgMC43NiwwLjk1IDAuMTksLTEuMTQgSCA3LjQyIFoiLz4mI3hhOyYjeGE7PHBhdGggaWQ9InBhdGg4MDYzNyIgaW5rc2NhcGU6Y29ubmVjdG9yLWN1cnZhdHVyZT0iMCIgc3R5bGU9ImZpbGw6IzFlMWUxZSIgZD0ibSA5NC41MiwyMS43MTM5NjkgYyAtMC4zOCwtMi44NiAtMS4xNCwtNS43MSAtMi4yOCwtNy42MSAtMC4xOSwtMC4xOSAtMC4zOCwtMC41NyAtMC41NywtMC43NiAtMC41NywtMC41NyAtMS4zMywtMC45NSAtMi4wOSwtMS4zMyAtMC43NiwtMC4zOCAtMS43MSwtMC4zOCAtMi40NywwIC0wLjE5LDAuMTkgLTAuMzksMC4xOSAtMC41OCwwLjM4IC0wLjM4LDAuMzggLTAuNzYsMC45NSAtMS4xNCwxLjUyIC0wLjM4LDAuNTcgLTAuOTUsMS4zMyAtMS4zMywxLjcxIC0wLjU3LDAuNTcgLTEuMzMsMC43NiAtMi4wOSwxLjE0IC0wLjM4LC0wLjc2IC0wLjU3LC0xLjUyIC0xLjE0LC0yLjA5IC0wLjU3LC0wLjc2IC0wLjk1LC0xLjUyIC0xLjcxLC0yLjI4IC0wLjU3LC0wLjU3IC0wLjk1LC0wLjk1IC0xLjUyLC0xLjUzIC0wLjU3LC0wLjM4IC0xLjE1LC0wLjc2IC0xLjcyLC0xLjE0MDAwMDQgLTEuNzEsLTEuMTQgLTMuMDQsLTIuMjggLTQuNTYsLTMuNjEgLTAuNTcsLTAuNTcgLTEuMzMsLTEuMTQgLTEuOSwtMS43MSAtMy40MywtMi44NSAtNi42NiwtNC4xOTAwMDAwMSAtMTAuMDgsLTQuMzgwMDAwMDEgLTMuNDMsLTAuMTkgLTcuMDQsMC43NiAtMTEuNDEsMi40ODAwMDAwMSAtMi4xLDAuOTUgLTMuNjIsMS45IC00Ljk1LDMuMDQgLTEuMzMsMS4xNCAtMi4yOCwyLjQ3IC0zLjYxLDQuMTggLTAuNzYsMCAtMS4zMywwLjE5IC0xLjksMC4zODAwMDA0IC0wLjc2LDAuMTkgLTEuMzMsMC43NiAtMi4yOSwxLjUzIC0wLjU3LDAuNTcgLTEuMTQsMS4xNCAtMS43MSwxLjUyIC0wLjU3LDAuNTcgLTAuOTUsMC45NSAtMS41MiwxLjUyIC0zLjk5LDAuNTcgLTcuMDQsMS4zMyAtOS44OSwyLjQ3IC0yLjg1LDEuMTQgLTUuNTEsMi42NiAtOC4xOCw0Ljk1IC0xLjE0LDAuOTUgLTIuMDksMS45IC0yLjg1LDMuMDQgLTAuNzYsMS4xNCAtMS41MiwyLjA5IC0yLjA5LDMuMjMgLTAuNTcsMC41NyAtMS4xNCwxLjE0IC0xLjcxLDEuNzEgLTAuNTcsMC41NyAtMS4xNCwwLjk1IC0xLjksMS4xNCAtMC4zOSwwLjE5IC0wLjU4LDAuMTkgLTAuNTgsMC4xOSB2IC0wLjE5IGMgMC45NiwtMC45NSAxLjE1LC0yLjI4IDEuMTUsLTMuNjEgMC4xOSwwLjE5IDAuMTksMC4zOCAwLjM4LDAuNTcgMC4xOSwwLjE5IDAuMTksMC4zOCAwLjM4LDAuNTcgbCAwLjM4LC0wLjM4IDAuNTcsMC4xOSBjIDAuMTksLTAuOTUgMC4zOCwtMS45IDAuMTksLTMuMDQgLTAuMTksLTAuNTcgLTAuMzgsLTEuMTQgLTAuOTUsLTEuNTIgMCwtMC4xOSAwLjE5LC0wLjE5IDAuMTksLTAuMzggMC4xOSwtMC4zOCAwLjM4LC0wLjc2IDAuMzgsLTEuMzMgbCAtMC4zOCwtMC4xOSAwLjM4LDAuMTkgMC41NywtMC4zOCAtMC43NiwwLjE5IGMgLTEuMTQsMC4xOSAtMy40MywxLjUyIC01LjE0LDMuMjMgLTAuNTcsMC41NyAtMS4xNCwxLjMzIC0xLjUyLDIuMDkgLTAuNTcsMC45NSAtMC41NywxLjcxIC0wLjU3LDIuNDcgMC4xOSwwLjc2IDAuNTcsMS4zMyAxLjE0LDIuMSAwLjE5LDAuNTcgMC4xOSwwLjk1IDAuMzgsMS4zMyAwLjE5LDAuMzggMC4zOCwwLjc2IDAuMzgsMS4xNCAwLjU3LDAuOTUgMS4zMywxLjcxIDIuMDksMS45IDAuNzYsMC4xOSAxLjUzLDAuMTkgMi4yOSwwIC0wLjE5LDAuOTUgLTAuMTksMS45IC0wLjM4LDIuODUgMCwxLjMzIDAsMi44NiAwLjE5LDQuNTcgMCwwLjM4IDAsMC43NiAwLjE5LDEuMTQgMCwwLjM4IDAuMTksMC43NiAwLjE5LDEuMTQgLTAuMTksMC4zOCAtMC4zOCwwLjc2IC0wLjM4LDEuMTQgLTAuMTksMC41NyAtMC4zOCwxLjMzIC0wLjc2LDEuOSAtMC41OCwwLjU3IC0wLjk2LDAuOTUgLTEuNTMsMS41MiAtMC4zOCwwLjM4IC0wLjk1LDAuOTUgLTEuMzMsMS4zMyAwLDAgLTAuMTksMC4yIC0wLjM4LDAuMzkgLTAuOTUsMC45NSAtMS4xNCwxLjE0IC0wLjk1LDIuNjYgMC4xOSwwLjk1IDAuNTcsMS45IDAuOTUsMy4wNCAwLjM4LDAuOTUgMS4xNCwxLjcxIDEuOSwyLjY2IDEuMzQsMS4xNCAzLjA1LDIuMjkgNC43NiwzLjA1IDAuOTUsMC4zOCAyLjA5LDAuNTcgMy4wNCwwLjM4IDAsMC4xOSAwLDAuMzggLTAuMTksMC4zOCAtMC4xOSwwLjM4IC0wLjM4LDAuNzYgLTAuNTcsMS4zMyAtMS4xNCwyLjY2IDAsMy45OSAxLjksNC43NSAwLjk1LDAuMzggMi4wOSwwLjc2IDMuMDUsMC45NSAwLjE5LDAgMC4zOCwwLjE5IDAuNzYsMC4xOSAxLjE0LDAuMzggMy40MiwwLjk2IDUuMzIsMS4xNSAyLjA5LDAuMTkgNCwtMC4zOCA0LjU3LC0yLjI5IDAuMTksLTAuNzYgMC4zOCwtMS4zMyAwLjM4LC0xLjkgMCwtMC41NyAwLC0xLjE0IDAsLTEuNzEgMC41NywtMS4zMyAwLjk1LC0xLjcxIDEuMzMsLTIuMjggMCwtMC4xOSAwLjE5LC0wLjE5IDAuMTksLTAuMzggMC4zOCwtMC43NiAwLjc2LC0xLjE0IDAuNzYsLTEuNzEgMCwtMC41OCAwLC0xLjE1IDAsLTEuOTEgMCwwIDAsLTAuMTkgMCwtMC4zOCAxLjE0LDAuMTkgMi40NywwLjE5IDMuNjEsMC4xOSAwLjU3LDAgMS4xNCwwIDEuOSwwIC0wLjE5LDAgLTAuMzgsMC4xOSAtMC41NywwLjE5IDAsMCAtMC4xOSwwIC0wLjE5LDAuMTkgLTEuNzEsMC43NiAtMS43MSwyLjQ4IC0xLjE0LDQgMC4zOCwxLjUyIDEuMzMsMy4wNCAyLjA5LDMuOCAxLjM0LDEuOSAyLjQ4LDMuNjEgMy44MSw0LjM4IDEuNTIsMC45NSAzLjIzLDAuOTUgNS41MSwtMC4xOSAxLjE0LC0wLjU4IDEuNTIsLTEuMzQgMS45MSwtMi4xIDAuMTksLTAuMTkgMC4zOCwtMC41NyAwLjU3LC0wLjc2IDAuMzgsLTAuMzggMS41MiwtMS4zMyAyLjg1LC0yLjI4IDAuMzgsLTAuMzggMC43NiwtMC41NyAxLjMzLC0wLjk1IDAuMzgsMC4xOSAwLjU3LDAuMzggMS4xNCwwLjU3IDAuNTcsMC4xOSAxLjMzLDAuMTkgMi4wOSwwLjE5IDAuNTcsMCAyLjY3LDAgNCwwIDAuMzgsMCAwLjc2LDAgMC45NSwwIDEuMzMsMCAyLjQ3LDAgMy4yMywtMC41NyAwLjk1LC0wLjU3IDEuMzMsLTEuMzMgMS41MiwtMi44NSAwLC0wLjc2IDAsLTEuMTQgMCwtMS41MiAwLC0wLjM4IC0wLjE5LC0wLjc3IC0wLjU3LC0xLjM0IDAsLTAuNzYgMCwtMS4zMyAwLC0yLjA5IDAsLTAuNzYgMCwtMS41MiAwLC0yLjA5IDAsLTAuNzYgLTAuMTksLTEuNTIgLTAuMzgsLTIuMjggLTAuMTksLTAuNzYgLTAuMzgsLTEuMzMgLTAuNzYsLTIuMDkgLTAuMTksLTAuNTcgLTAuMzgsLTAuOTYgLTAuNTcsLTEuNTMgbCAtMC4zOCwwLjE5IDAuMzgsLTAuMTkgYyAtMC4xOSwtMC43NiAtMC41NywtMS41MiAtMC45NSwtMi4yOCAwLC0wLjE5IDAsLTAuMzggMCwtMC41NyAwLjE5LDAuMTkgMC41NywwLjU3IDAuNzYsMC43NiBsIDEuMTQsMS4xNCBjIDAuNzYsMC43NiAxLjUyLDEuNTIgMi40NywyLjEgMC45NSwwLjU3IDEuOTEsMC45NSAzLjI0LDAuNzYgMS4zMywwIDIuODUsLTAuNTcgNC4xOCwtMS41MyAxLjE0LC0wLjk1IDIuMDksLTIuMDkgMi42NiwtMy40MiAwLjE5LC0wLjM4IDAuMTksLTAuNzYgMC4zOCwtMS4xNCAwLC0wLjM4IDAuMTksLTAuNTcgMC4xOSwtMC45NSAxLjkxLDAuMzggNC4xOSwwLjM4IDYuMDksMC4xOSAxLjksLTAuMTkgMy45OSwtMC43NiA1LjUyLC0xLjUyIDIuNDcsLTEuMzMgNC4xOCwtMy4yNCA1LjUxLC01LjUyIDEuNTIsLTIuNDcgMi4yOCwtNS41MSAyLjY2LC04LjU2IC0wLjE5LC0yLjI4IC0wLjM4LC01LjcgLTAuOTUsLTguOTMgeiBtIC0yOC41MywyMy4wMSBjIC0wLjU3LDEuOSAtMS41Miw1LjEzIDEuMTUsNS43IDAuOTUsMC4xOSAxLjUyLDAuMTkgMi44NSwtMC41NyAtMS4xNCwwLjE5IC0xLjcxLDAuMTkgLTIuNDcsMCAtMC43NiwtMC4xOSAtMS4xNCwtMC41NyAtMS4zNCwtMS4xNCAwLjIsMC4xOSAwLjU4LDAuMTkgMS4zNCwwLjM4IDEuOSwwLjM4IDMuOCwtMC4zOCA0LjE4LC0xLjkgMC4xOSwtMC43NiAwLjE5LC0xLjE0IDAuNTcsLTIuMjggMC4zOCwwLjE5IDAuNzYsMC4xOSAxLjMzLDAuMzggLTAuMTksMC43NiAtMC41NywxLjUyIC0wLjc2LDIuNDcgLTAuNTcsMi4wOSAtMy4wNCwzLjggLTUuMzIsMy42MSAtMi4xLDAgLTMuMjQsLTEuMzMgLTQuNzYsLTIuNDcgLTAuOTUsLTAuNzYgLTEuOSwtMS43MSAtMi44NSwtMi40NyAtMi40NywtMC43NiAtNC41NywtMS43MSAtNi44NSwtMy40MiAxLjcxLDEuOSAyLjg1LDMuMDQgNS4xNCwzLjk5IC0wLjM4LDMuNDIgLTEuNTIsNS45IC0yLjQ4LDkuMTMgLTAuMzgsMS41MiAtMy45OSw3LjQyIC01LjEzLDcuOTkgLTAuNzYsMC4zOCAtNS4xNCw0LjE4IC02LjA5LDQuNzUgLTAuNTcsMC43NiAtMS4xNCwxLjkgLTIuMDksMi40NyAtMi44NSwxLjUzIC00Ljc1LC0xLjMzIC02LjI3LC0zLjggLTAuNzcsLTEuMTQgLTIuNjcsLTQuMzcgLTAuOTYsLTUuMzIgMS41MywtMC43NyAyLjQ4LC0xLjUzIDQuMTksLTIuNDggMC4xOSwwLjM4IDAuNTcsMC45NSAwLjk1LDEuMzMgMCwtMC41NyAtMC4xOSwtMC45NSAtMC4xOSwtMS41MiAtMC4xOSwtMC45NSAtMC4xOSwtMS41MiAwLC0yLjQ3IDAsLTAuNzYgMC4xOSwtMS43MSAwLjE5LC0yLjQ3IC0wLjE5LDAuOTUgLTAuNzYsMS43MSAtMC45NSwyLjY2IC0wLjE5LDAuMzggLTAuMTksMC41NyAtMC4xOSwwLjk1IC0zLjYyLDAuNzYgLTcuNDIsMC43NiAtMTEuMDMsMC4xOSAtMC4xOSwtMS4zMyAtMC41NywtMi44NSAtMC43NiwtMy44IDAsMS4xNCAwLDQuMzcgMCw2LjA4IDAsMS4zMyAwLDEuOTEgLTAuNzYsMy4wNSAtMC41NywxLjE0IC0wLjk1LDEuMzMgLTEuOTEsMy4yMyAwLDEuMTQgMCwxLjkgLTAuMTksMy4wNCAtMC41NywxLjkgLTUuNywwLjM4IC03LjAzLDAgLTEuNzEsLTAuMzggLTUuMTQsLTEuMTQgLTQuMzgsLTMuNDIgMC43NiwtMS45IDEuMzMsLTMuOTkgMS43MSwtNi44NSAtMy4wNCwtNC4zNyAtNS44OSwtMTAuNDYgLTYuNDYsLTE1Ljk3IC0wLjM4LC00LjE5IC0wLjE5LC02Ljg1IDAuNzYsLTkuMzIgMS41MiwtNCAzLjQyLC03LjYxIDYuNjYsLTEwLjQ2IDQuMzcsLTMuODEgOC4zNiwtNS4zMyAxNC44MywtNi4yOCAtMS41MiwxLjcxIC0zLjA0LDMuNjEgLTQuNzUsNS41MiAtMS43MiwxLjkgLTIuNjcsMy45OSAtMy44MSw2LjA4IC0xLjUyLDMuMDUgLTEuNTIsNC4xOSAwLjU3LDYuNjYgMS43MSwyLjI4IDIuNjYsMy4yMyAzLjI0LDUuNTEgLTAuNTgsMS4zNCAtMC43NywyLjI5IC0wLjk2LDQgMi4xLDIuMjggMy42MiwzLjggNS41Miw0LjE4IDEuOSwwLjM4IDMuNjEsMC4zOCA1LjMzLC0wLjU3IDMuOCwtMS45IDcuNDEsLTQuNTYgMTEuNzksLTQuNzUgMi4wOSwtNC45NSAxLjksLTkuMTMgMC43NiwtMTQuMDggLTAuNTcsLTMuMjMgLTAuOTUsLTYuNDYgLTEuMTQsLTkuNyAtMC43NiwzLjQzIC0wLjk1LDYuNDcgLTAuMzgsOS44OSAwLjc2LDQuMTkgMS4zMyw4Ljc1IC0wLjc2LDEyLjM3IC00LDAuMzggLTcuNDIsMi42NiAtMTEuMDQsNC41NiAtMS41MiwwLjc2IC0yLjg1LDAuNzYgLTQuNTYsMC4zOCAtMS4xNCwtMC4xOSAtMi4wOSwtMS4xNCAtMy44LC0zLjA0IDAsLTEuOSAwLjM4LC0yLjY2IDEuMTQsLTQuMzggMS4zMywtMi42NiAyLjg1LC01LjEzIDQuNTYsLTcuNzkgLTEuOSwyLjQ3IC0zLjgsNC41NiAtNS4zMiw2Ljg0IC0wLjU3LC0xLjcxIC0xLjUzLC0yLjY2IC0yLjg2LC00LjU2IC0xLjMzLC0xLjkgLTEuNTIsLTIuNjYgLTAuNTcsLTQuOTUgMS4xNCwtMi4yOCAxLjksLTQuMTggMy44MSwtNi4wOCAzLjA0LC0zLjQzIDUuODksLTcuMDQgOS4zMiwtMTAuNDYgMS45LC0xLjcxIDIuNjYsLTEuNzEgNC45NCwtMi4wOSAyLjI4LC0wLjM5IDQuMzgsLTAuNzcgNi42NiwtMS4zNDAwMDA0IC0yLjI4LDAuMzgwMDAwNCAtNC4zOCwwLjU3MDAwMDQgLTYuNDcsMC41NzAwMDA0IHYgMCBjIDIuMDksLTIuNjYwMDAwNCAzLjIzLC00LjE4MDAwMDQgNi42NiwtNS43MDAwMDA0IDguMzcsLTMuNjEgMTMuNjksLTQuMDAwMDAwMDEgMjAuMTYsMS41MiAxLjcxLDEuNTIgMy4yMywyLjg1IDQuOTQsMy45OTAwMDA0IC0wLjU3LDAgLTEuMTQsMC4xOSAtMS45LDAuMzggMC45NSwtMC4xOSAxLjksMCAyLjg1LDAuMTkgMC4xOSwwLjE5IDAuNTcsMC4zOSAwLjc2LDAuNTggMS4xNCwwLjc2IDEuOTEsMS4xNCAyLjY3LDIuMjggMC45NSwxLjE0IDEuNTIsMi40NyAyLjI4LDMuOCAtMC4zOCwtMC4xOSAtMC43NiwtMC4xOSAtMS4xNCwtMC4zOCAtMC4xOSwtMC4xOSAtMC41NywtMC4xOSAtMC43NiwtMC4xOSAtMC41NywwIC0wLjk1LDAgLTEuNTIsMC4zOCB2IDAgYyAtMC43NywwLjM4IC0xLjcyLDAuNzYgLTIuNDgsMC43NiAwLjM4LDAuMTkgMS4xNCwwLjE5IDEuNTIsMCBoIDAuMTkgYyAtMC4xOSwwLjE5IC0wLjE5LDAuNTcgLTAuMzgsMC45NSAwLDAuMzggMCwwLjk1IDAuMTksMS4zMyB2IDAgYyAwLDAuMTkgMC4xOSwwLjE5IDAuMTksMC4zOCAtMC4zOCwwLjE5IC0wLjU3LDAuMTkgLTAuOTUsMC4zOCAxLjUzLC0wLjE5IDMuMDUsLTAuMTkgNC41NywwIDAuMTksMC41OCAwLjE5LDAuOTYgMC4zOCwxLjUzIC0wLjE5LDAgLTAuMzgsMCAtMC41NywwIHYgMCBjIC0wLjc2LC0wLjU3IC0xLjUyLC0wLjU3IC0yLjY2LC0wLjE5IC0zLjI0LDAuNzYgLTIuNDgsMi42NiAtNCw1LjUxIDEuNTIsLTEuOSAxLjUyLC0zLjk5IDQsLTQuNTYgMC41NywtMC4xOSAwLjk1LC0wLjM4IDEuMzMsLTAuMTkgLTAuNzYsMC4zOCAtMS4zMywwLjk1IC0xLjcyLDEuNzEgLTAuNzYsMi4wOSAtMC4xOSwzLjYxIC0xLjE0LDUuNTEgMC45NSwtMS43MSAwLjk1LC0zLjIzIDEuOTEsLTUuMTMgMC4zOCwtMC41NyAxLjUyLC0xLjcxIDIuMDksLTEuNzEgMC4xOSwwIDAuMzgsMCAwLjU3LDAgMC4xOSwxLjE0IDAuMTksMi4yOCAwLjE5LDMuMDQgLTAuMTksMS43MSAtMC41Nyw0LjE4IC0wLjc2LDUuMTQgMC45NSwtMS4xNSAxLjMzLC0zLjQzIDEuNzEsLTUuMTQgMC4zOCwtMS43MSAwLjM4LC0zLjggMCwtNS43MSAtMC41NywtMi42NiAyLjA5LC0yLjA5IDMuNjEsLTMuNDIgMS4xNCwtMC45NSAxLjksLTIuMjggMi44NiwtMy4yMyAwLjk1LC0wLjk1IDIuNjYsMC4zOCAzLjA0LDEuNTIgMS43MSw0LjE4IDIuNDcsMTAuODQgMi4wOSwxNS4yMSAtMC41Nyw0Ljc2IC0yLjg1LDEwLjA4IC03LjA0LDEyLjM3IC01LjMyLDMuMDQgLTExLjc5LDEuMTQgLTE3LjExLC0wLjU3IC0xLjE0LC0wLjM4IC0xLjksLTAuOTUgLTIuODYsLTEuNTMgMC41NywwLjk2IDAuNzcsMi4yOSAwLjM4LDMuNDMgeiBtIC00Ljc1LDE5LjIxIGMgLTAuMTksMS45IC0wLjc2LDIuMDkgLTIuNjYsMi4wOSAtMC43NiwwIC00LDAgLTQuNzYsLTAuMTkgLTEuMTQsLTAuMTkgLTEuNzEsLTAuMTkgLTIuMDksLTAuMzggMS43MSwtMS4zMyA0Ljc2LC02LjY2IDUuMzMsLTguNTYgMC41NywtMS45IDEuMzMsLTMuNjEgMS43MSwtNS41MiAwLjE5LDAuNzcgMC4zOCwxLjUzIDAuNzYsMi4yOSAwLjU3LDEuMzMgMC43NiwyLjA5IDAuOTUsMy42MSAwLDEuNTIgMCwzLjA0IDAuMTksNC41NiAwLjU3LDAuOTYgMC41NywxLjE1IDAuNTcsMi4xIHogbSAtNTUuNTMsLTM5LjU2IGMgLTAuMzgsMC41NyAtMC41NywxLjE0IC0wLjU3LDEuNTIgLTAuNTgsMi4wOSAwLjE5LDMuOTkgLTEuNzIsNS41MSAwLjk1LDEuNzIgMC43NiwyLjQ4IDIuODYsMS43MiAwLjc2LC0wLjM4IDEuNTIsLTAuNzYgMi4wOSwtMS4zMyAtMC4xOSwwLjc2IC0wLjU3LDEuNTIgLTAuNzYsMi4yOCAwLDAuMTkgMCwwLjE5IC0wLjE5LDAuMzggLTEuNTIsMC41NyAtMy40MywwLjk1IC00LjE5LC0wLjU3IC0wLjM4LC0wLjc2IC0wLjU3LC0xLjUyIC0wLjc2LC0yLjQ4IC0yLjQ3LC0yLjQ3IDEuMTQsLTUuODkgMy4yNCwtNy4wMyB6IG0gMC4xOSwyLjI4IGMgMCwtMC4xOSAwLC0wLjU3IDAuMTksLTAuNzYgMCwtMC4xOSAwLC0wLjE5IDAuMTksLTAuMzggMC41NywwLjM4IDAuNTcsMC43NiAwLjc2LDEuNTIgLTAuMzgsLTAuMzggLTAuNzYsLTAuNTcgLTEuMTQsLTAuMzggeiBtIDEuOSwyMi4yNSBjIDEuMTQsMy44MSAzLjA0LDcuOCA1LjEzLDExLjAzIHYgMCBjIC0wLjE5LDAuNTcgLTAuMzgsMS4xNCAtMC41NywxLjUyIC0xLjUyLDIuMSAtNS4zMiwtMC45NSAtNi40NiwtMi4wOSAtMS4zNCwtMS4zMyAtMi4xLC0yLjg1IC0yLjI5LC00LjE4IC0wLjE5LC0wLjk1IDAsLTAuOTUgMC43NiwtMS43MSAwLjk2LC0wLjk1IDEuOTEsLTEuOTEgMi44NiwtMi44NiAwLjE5LC0wLjU3IDAuMzgsLTEuMTQgMC41NywtMS43MSB6IG0gNzIuNDYsLTMxLjM4IGMgMCwwLjE5IDAuMTksMC4zOCAwLjE5LDAuNTcgbCAtMC4xOSwwLjE5IGMgLTAuMTksLTAuMTkgLTAuMzgsLTAuNTcgLTAuNTcsLTAuNzYgMC4xOSwwIDAuMzgsMCAwLjU3LDAgeiIvPiYjeGE7JiN4YTs8cGF0aCBpZD0icGF0aDgwNjQ1IiBpbmtzY2FwZTpjb25uZWN0b3ItY3VydmF0dXJlPSIwIiBzdHlsZT0iZmlsbDojMWUxZTFlIiBkPSJtIDg1LjAxLDE5LjgxMzk2OSBjIDIuNjcsLTAuOTUgNCwtMy4wNSA0LjU3LC01LjcxIC0xLjE0LDIuMDkgLTIuNjYsMy45OSAtNC45NSw0Ljk1IC0xLjE0LDAuNTcgLTEuOSwwLjM4IC0zLjIzLDAuMTkgMS4zMywwLjU3IDIuMjgsMC45NSAzLjYxLDAuNTcgeiIvPiYjeGE7JiN4YTs8cGF0aCBpZD0icGF0aDgwNjUzIiBpbmtzY2FwZTpjb25uZWN0b3ItY3VydmF0dXJlPSIwIiBzdHlsZT0iZmlsbDojMWUxZTFlIiBkPSJtIDY5LjgsMjIuNDczOTY5IGMgLTAuNzYsMCAtMS43MSwwLjE5IC0yLjg1LDAuMzggMCwtMC4zOCAtMC4xOSwtMC41NyAtMC4xOSwtMC45NSAtMC4zOCwtMC43NiAtMC45NSwtMS4zMyAtMS43MSwtMS41MiAwLjU3LC0wLjM4IDEuMzMsLTAuNzYgMS45LC0xLjE0IC0xLjUyLDAuNzYgLTMuMjMsMC41NyAtNC41NywxLjMzIC0xLjE0LDAuNzYgLTIuNjYsMy4yMyAtMy44LDQuMTggMC43NiwtMC4zOCAxLjUyLC0wLjk1IDIuMjgsLTEuNTIgMCwwLjM4IDAuMTksMC45NSAwLjM4LDEuMzMgMC4zOCwwLjU3IDAuNzYsMS4xNCAxLjMzLDEuMzMgLTAuMzgsMC41OCAtMC43NiwxLjE1IC0wLjk1LDEuOTEgMi4xLC0yLjQ4IDUuMTQsLTQuNTcgOC4xOCwtNS4zMyB6Ii8+JiN4YTsmI3hhOzxwYXRoIGlkPSJwYXRoODA2NjEiIGlua3NjYXBlOmNvbm5lY3Rvci1jdXJ2YXR1cmU9IjAiIHN0eWxlPSJmaWxsOiMxZTFlMWUiIGQ9Im0gNTYuMSwxOS42MjM5NjkgYyAwLjU3LC0yLjI5IDEuMzMsLTQuMzggNC43NiwtNS45IC00LjU3LDEuMTQgLTUuMzMsMy4wNCAtNC43Niw1LjkgeiIvPiYjeGE7JiN4YTs8cGF0aCBpZD0icGF0aDgwNjY5IiBpbmtzY2FwZTpjb25uZWN0b3ItY3VydmF0dXJlPSIwIiBzdHlsZT0iZmlsbDojMWUxZTFlIiBkPSJtIDYzLjUyLDQxLjI5Mzk2OSBjIC0wLjE5LDAuNTggLTAuMTksMS41MyAtMC4zOCwyLjEgMC4xOSwtMC43NiAwLjU3LC0xLjcyIDAuOTUsLTIuMjkgMC4zOCwtMC43NiAwLjU3LC0wLjc2IDEuMzMsLTEuMTQgMC41NywtMC4xOSAxLjUyLC0wLjc2IDEuOSwtMC45NSAtMC41NywwIC0xLjUyLDAuMzggLTIuMDksMC4zOCAtMS4zMywwLjE5IC0xLjUyLDAuNTcgLTEuNzEsMS45IHoiLz4mI3hhOyYjeGE7PHBhdGggaWQ9InBhdGg4MDY3NyIgaW5rc2NhcGU6Y29ubmVjdG9yLWN1cnZhdHVyZT0iMCIgc3R5bGU9ImZpbGw6IzFlMWUxZSIgZD0ibSAzOS4xNywxNS42MzM5NjkgYyAtMS43MSwxLjcxIC0zLjIzLDcuMjIgLTMuOCw5LjUxIDAuNzYsLTEuOTEgMi44NSwtNy4wNCA0LjM3LC04LjM3IDAuMzgsLTAuMzggMC43NywtMC41NyAxLjE1LC0wLjc2IC0xLjE1LDEuOSAtMC45NiwyLjI4IC0wLjU4LDQuNzUgMC4zOSwtMi40NyAxLjE1LC0zLjYxIDIuNjcsLTUuNTEgMS41MiwtMC4zOCAzLjA0LC0wLjk1IDQuNzUsLTEuNTIgLTEuOSwwLjE5IC0zLjYxLDAuMzggLTUuNTEsMC41NyAtMS43MSwwLjM4IC0yLjEsMC4zOCAtMy4wNSwxLjMzIHoiLz4mI3hhOyYjeGE7PHBhdGggaWQ9InBhdGg4MDY4NSIgaW5rc2NhcGU6Y29ubmVjdG9yLWN1cnZhdHVyZT0iMCIgc3R5bGU9ImZpbGw6I2ZmZmFjYiIgZD0ibSA2MS44MSwyNS4zMzM5NjkgYyAtMC4zOCwtMC41NyAwLC0xLjM0IDAuNTcsLTEuNzIgMC41NywtMC4zOCAxLjMzLDAgMS43MSwwLjU3IHYgMC4yIGMgLTAuNTcsMC4zOCAtMS4xNCwwLjk1IC0xLjcxLDEuNTIgLTAuMTksMCAtMC41NywtMC4xOSAtMC41NywtMC41NyB6Ii8+JiN4YTsmI3hhOzxwYXRoIGlkPSJwYXRoODA2OTMiIGlua3NjYXBlOmNvbm5lY3Rvci1jdXJ2YXR1cmU9IjAiIHN0eWxlPSJmaWxsOiNmZmZhY2IiIGQ9Im0gNzUuODgsMTkuODEzOTY5IGMgMCwtMC41NyAwLjU3LC0wLjk2IDAuOTUsLTAuOTYgMC41NywwIDAuOTUsMC41OCAwLjk1LDAuOTYgMCwwLjE5IDAsMC4xOSAwLDAuMzggLTAuNTcsMCAtMC45NSwwLjE5IC0xLjUyLDAuMzggLTAuMTksMCAtMC4zOCwtMC4zOCAtMC4zOCwtMC43NiB6Ii8+JiN4YTs8L3N2Zz4=;" vertex="1" parent="1">
          <mxGeometry x="400" y="200" width="95" height="74" as="geometry" />
        </mxCell>
        <mxCell id="n0bJvDlAcugo_qtZuH2x-3" value="" style="shape=image;verticalLabelPosition=bottom;labelBackgroundColor=#ffffff;verticalAlign=top;aspect=fixed;imageAspect=0;image=https://d3dr9sfxru4sde.cloudfront.net/i/k/apachekudu_logo_0716_345px.png;" vertex="1" parent="1">
          <mxGeometry x="570" y="320" width="77.59" height="56" as="geometry" />
        </mxCell>
      </root>
    </mxGraphModel>
  </diagram>
</mxfile>
